<svg xmlns="http://www.w3.org/2000/svg" width="33.878" height="33.875" viewBox="1225.061 2061.062 33.878 33.875">
                    <g data-name="004-support">
                      <path d="M33.852 5.916c-.144-1.637-2.132-2.366-3.296-1.203l-1.662 1.662a.976.976 0 0 1-1.36.014c-.392-.378-.372-1.029.014-1.415l1.635-1.635c1.162-1.162.436-3.15-1.203-3.295-4.454-.392-7.987 3.75-6.806 8.144L.94 28.422a3.204 3.204 0 0 0 0 4.534 3.21 3.21 0 0 0 4.534 0l20.229-20.23c4.34 1.181 8.545-2.315 8.149-6.81Z" fill-rule="evenodd" fill="url(&quot;#a&quot;)" transform="translate(1225.061 2061.044)" data-name="Path 85"></path>
                      <path d="M4.311 10.055c.048.093.11.179.184.253l2.872 2.872a.992.992 0 0 0 1.403 0l1.461-1.46 2.79 2.79-2.983 2.981a1.989 1.989 0 0 0 .001 2.807l.313.313 10.179-10.178-.313-.313a1.985 1.985 0 0 0-2.808 0l-2.986 2.985-2.79-2.789 1.461-1.46a.992.992 0 0 0 0-1.404L10.223 4.58a.99.99 0 0 0-.256-.186L6.296 2.55a.992.992 0 0 0-1.148.185L2.64 5.244a.992.992 0 0 0-.183 1.15l1.854 3.66Z" fill-rule="evenodd" fill="url(&quot;#b&quot;)" transform="translate(1222.867 2058.778)" data-name="Path 86"></path>
                      <path d="m265.214 258.046-7.065 7.065 8.114 8.116a4.993 4.993 0 0 0 7.064 0 5 5 0 0 0 0-7.065l-8.113-8.116Zm5.814 12.88a.993.993 0 0 1-1.403 0l-5.634-5.634a.992.992 0 1 1 1.404-1.403l5.633 5.633a.992.992 0 0 1 0 1.404Z" fill-rule="evenodd" fill="url(&quot;#c&quot;)" transform="translate(983.993 1820.09)" data-name="Path 87"></path>
                    </g>
                    <defs>
                      <linearGradient x1=".5" y1="0" x2=".5" y2="1" id="a3">
                        <stop stop-color="#f50366" offset="0"></stop>
                        <stop stop-color="#fc5904" offset="1"></stop>
                      </linearGradient>
                      <linearGradient x1=".5" y1="0" x2=".5" y2="1" id="b3">
                        <stop stop-color="#f50366" offset="0"></stop>
                        <stop stop-color="#fc5904" offset="1"></stop>
                      </linearGradient>
                      <linearGradient x1=".5" y1="0" x2=".5" y2="1" id="c3">
                        <stop stop-color="#f50366" offset="0"></stop>
                        <stop stop-color="#fc5904" offset="1"></stop>
                      </linearGradient>
                    <linearGradient x1=".5" y1="0" x2=".5" y2="1" id="a">
                        <stop stop-color="#f50366" offset="0"></stop>
                        <stop stop-color="#fc5904" offset="1"></stop>
                      </linearGradient><linearGradient x1=".5" y1="0" x2=".5" y2="1" id="b">
                        <stop stop-color="#f50366" offset="0"></stop>
                        <stop stop-color="#fc5904" offset="1"></stop>
                      </linearGradient><linearGradient x1=".5" y1="0" x2=".5" y2="1" id="c">
                        <stop stop-color="#f50366" offset="0"></stop>
                        <stop stop-color="#fc5904" offset="1"></stop>
                      </linearGradient></defs>
                  </svg>