<svg xmlns="http://www.w3.org/2000/svg" width="33.878" height="33.878" viewBox="425.061 2061.061 33.878 33.878" data-metatip="true">
                    <g data-name="vector">
                      <g data-name="Group 68">
                        <g data-name="Group 67">
                          <path d="M32.885 0H28.85a.992.992 0 0 0-.992.993v.992h-8.123A2.973 2.973 0 0 0 16.939 0a2.973 2.973 0 0 0-2.795 1.985H6.021V.993A.992.992 0 0 0 5.03 0H.993A.992.992 0 0 0 0 .993v3.97c0 .548.444.992.993.992h4.036a.992.992 0 0 0 .992-.992V3.957h4.076C6.653 6.109 4.382 9.888 4.11 14.12a2.972 2.972 0 0 0-2.059 2.818 2.98 2.98 0 0 0 2.978 2.978 2.98 2.98 0 0 0 2.977-2.978 2.976 2.976 0 0 0-1.915-2.773c.34-4.72 3.632-8.697 8.213-9.832a2.97 2.97 0 0 0 2.635 1.621 2.97 2.97 0 0 0 2.635-1.621c4.58 1.135 7.874 5.113 8.212 9.832a2.976 2.976 0 0 0-1.914 2.773 2.98 2.98 0 0 0 2.977 2.978 2.98 2.98 0 0 0 2.978-2.978c0-1.32-.868-2.428-2.06-2.818-.27-4.233-2.542-8-5.987-10.15h4.077v.992c0 .548.444.992.992.992h4.036a.992.992 0 0 0 .993-.992V.993A.992.992 0 0 0 32.885 0Z" fill-rule="evenodd" fill="url(&quot;#a&quot;)" transform="translate(425.061 2061.061)" data-name="Path 88"></path>
                        </g>
                      </g>
                      <g data-name="Group 70">
                        <g data-name="Group 69">
                          <path d="M166.842 453.805c-.519-1.588-2.015-2.805-3.775-2.805h-5.955c-1.76 0-3.256 1.217-3.775 2.805-.2.613.321 1.231.966 1.231h11.574c.644 0 1.165-.618.965-1.23Z" fill-rule="evenodd" fill="url(&quot;#b&quot;)" transform="translate(281.91 1639.903)" data-name="Path 89"></path>
                        </g>
                      </g>
                      <g data-name="Group 72">
                        <g data-name="Group 71">
                          <path d="m138.698 143.12-7.773-11.661v9.416a2.973 2.973 0 0 1 1.985 2.795 2.98 2.98 0 0 1-2.977 2.977 2.98 2.98 0 0 1-2.978-2.977c0-1.293.832-2.384 1.985-2.795v-9.416l-7.773 11.66a.992.992 0 0 0 .124 1.252c1.822 1.823 2.986 4.17 3.436 6.688a5.91 5.91 0 0 1 2.228-.442h5.955c.789 0 1.539.162 2.228.442.45-2.518 1.614-4.865 3.436-6.688a.992.992 0 0 0 .124-1.252Z" fill-rule="evenodd" fill="url(&quot;#c&quot;)" transform="translate(312.067 1938.3)" data-name="Path 90"></path>
                        </g>
                      </g>
                      <g data-name="Group 74">
                        <g data-name="Group 73">
                          <path d="M241.993 301a.993.993 0 1 0 .001 1.986.993.993 0 0 0-.001-1.986Z" fill-rule="evenodd" fill="url(&quot;#d&quot;)" transform="translate(200.007 1779.978)" data-name="Path 91"></path>
                        </g>
                      </g>
                    </g>
                    <defs>
                      <linearGradient x1=".5" y1="0" x2=".5" y2="1" id="a1">
                        <stop stop-color="#f50366" offset="0"></stop>
                        <stop stop-color="#fc5904" offset="1"></stop>
                      </linearGradient>
                      <linearGradient x1=".5" y1="0" x2=".5" y2="1" id="b1">
                        <stop stop-color="#f50366" offset="0"></stop>
                        <stop stop-color="#fc5904" offset="1"></stop>
                      </linearGradient>
                      <linearGradient x1=".5" y1="0" x2=".5" y2="1" id="c1">
                        <stop stop-color="#f50366" offset="0"></stop>
                        <stop stop-color="#fc5904" offset="1"></stop>
                      </linearGradient>
                      <linearGradient x1=".5" y1="0" x2=".5" y2="1" id="d1">
                        <stop stop-color="#f50366" offset="0"></stop>
                        <stop stop-color="#fc5904" offset="1"></stop>
                      </linearGradient>
                    <linearGradient x1=".5" y1="0" x2=".5" y2="1" id="a">
                        <stop stop-color="#f50366" offset="0"></stop>
                        <stop stop-color="#fc5904" offset="1"></stop>
                      </linearGradient><linearGradient x1=".5" y1="0" x2=".5" y2="1" id="b">
                        <stop stop-color="#f50366" offset="0"></stop>
                        <stop stop-color="#fc5904" offset="1"></stop>
                      </linearGradient><linearGradient x1=".5" y1="0" x2=".5" y2="1" id="c">
                        <stop stop-color="#f50366" offset="0"></stop>
                        <stop stop-color="#fc5904" offset="1"></stop>
                      </linearGradient><linearGradient x1=".5" y1="0" x2=".5" y2="1" id="d">
                        <stop stop-color="#f50366" offset="0"></stop>
                        <stop stop-color="#fc5904" offset="1"></stop>
                      </linearGradient></defs>
                  </svg>