<svg xmlns="http://www.w3.org/2000/svg" width="33.878" height="33.878" style="">
                    <path d="M56.803 64.063a1.815 1.815 0 1 1-3.63 0 1.815 1.815 0 0 1 3.63 0Zm-22.988-7.26a1.815 1.815 0 1 0 0-3.63 1.815 1.815 0 0 0 0 3.63Zm19.359-22.988a1.815 1.815 0 1 0 3.63 0 1.815 1.815 0 0 0-3.63 0ZM42.889 62.248a1.815 1.815 0 1 0 0 3.63 1.815 1.815 0 0 0 0-3.63Zm-9.074-17.544a1.815 1.815 0 1 0 0-3.63 1.815 1.815 0 0 0 0 3.63Zm.605 1.15a3.032 3.032 0 0 0 1.92-1.303l4.51 1.804.45-1.123-4.51-1.804a3.01 3.01 0 0 0-.453-2.205l4.885-4.886a3.01 3.01 0 0 0 2.206.454l.351.879 1.124-.45-.352-.88a3.032 3.032 0 0 0 1.303-1.92h6.171c.162.787.63 1.478 1.302 1.92l-.594 1.485 1.124.45.593-1.484a3.01 3.01 0 0 0 2.206-.454l4.885 4.885a3.01 3.01 0 0 0-.454 2.206L56.58 45.23l.45 1.123 4.508-1.803a3.032 3.032 0 0 0 1.921 1.303v6.171a3.032 3.032 0 0 0-1.92 1.302l-1.788-.715-.449 1.124 1.786.714a3.01 3.01 0 0 0 .454 2.206l-4.885 4.885a3.023 3.023 0 0 0-4.631 1.917h-6.171a3.032 3.032 0 0 0-1.302-1.92l.351-.88-1.123-.45-.351.88a3.01 3.01 0 0 0-2.206.453l-4.885-4.885a3.01 3.01 0 0 0 .454-2.206l4.508-1.803-.45-1.124-4.51 1.804a3.032 3.032 0 0 0-1.92-1.302v-6.171Zm7.864 11.554a2.423 2.423 0 0 0 2.42 2.42h9.075v-.605a.605.605 0 0 0-.064-.27l-.235-.47a3.16 3.16 0 0 1 .197-3.159.605.605 0 0 0-.076-.763l-2.044-2.044a.678.678 0 1 1 .96-.96l3.254 3.254.855-.855-1.032-1.033v-4.338L56.7 49.69c.455.453.71 1.069.708 1.71v6.612h1.21v-6.611a3.606 3.606 0 0 0-1.063-2.567l-1.961-1.962v-5.799a2.423 2.423 0 0 0-2.42-2.42h-8.47a2.423 2.423 0 0 0-2.42 2.42v16.334Zm1.21 0V41.074c.001-.667.542-1.209 1.21-1.21h1.441l.438.876a.605.605 0 0 0 .541.334h3.63c.229 0 .438-.129.54-.334l.439-.875h1.44c.669 0 1.21.542 1.21 1.21v10.638l-1.01-1.011a1.888 1.888 0 1 0-2.671 2.67l1.714 1.715a4.376 4.376 0 0 0-.194 3.531h-7.518a1.211 1.211 0 0 1-1.21-1.21Zm3.63-6.654h-1.21v1.21h1.21v-1.21Zm3.025 5.445h-2.42v1.21h2.42v-1.21Zm-.605-4.235v-1.21h-1.21v1.21h1.21Zm1.638-4.058a3.175 3.175 0 0 0-4.486 0l.856.856a1.964 1.964 0 0 1 2.774 0l.856-.856Zm-6.3-1.521.855.855a4.528 4.528 0 0 1 6.404 0l.856-.855a5.745 5.745 0 0 0-8.116 0Zm19.181 6.789a1.815 1.815 0 1 0 0 3.63 1.815 1.815 0 0 0 0-3.63Zm0-12.1a1.815 1.815 0 1 0 0 3.63 1.815 1.815 0 0 0 0-3.63ZM42.889 35.63a1.815 1.815 0 1 0 0-3.63 1.815 1.815 0 0 0 0 3.63Z" fill-rule="evenodd" fill="url(&quot;#a&quot;)" transform="translate(-32 -32)" data-name="Path 94"></path>
                    <defs>
                      <linearGradient x1=".5" y1="0" x2=".5" y2="1" id="a4">
                        <stop stop-color="#f50366" offset="0"></stop>
                        <stop stop-color="#fc5904" offset="1"></stop>
                      </linearGradient>
                    <linearGradient x1=".5" y1="0" x2=".5" y2="1" id="a">
                        <stop stop-color="#f50366" offset="0"></stop>
                        <stop stop-color="#fc5904" offset="1"></stop>
                      </linearGradient></defs>
                  </svg>