<svg xmlns="http://www.w3.org/2000/svg" width="33.878" height="33.746" viewBox="425.061 2394.127 33.878 33.746">
                    <g data-name="001-web-development">
                      <path d="M33.878 8.94V3.978A2.98 2.98 0 0 0 30.9 1H2.978A2.98 2.98 0 0 0 0 3.978V8.94h33.878ZM22.894 4.97h5.955a.993.993 0 0 1 0 1.985h-5.955a.993.993 0 0 1 0-1.985Zm-9.925 0a.993.993 0 1 1 0 1.985.993.993 0 0 1 0-1.985Zm-3.97 0a.993.993 0 1 1 0 1.985.993.993 0 0 1 0-1.985Zm-3.97 0a.993.993 0 1 1 0 1.985.993.993 0 0 1 0-1.985Z" fill-rule="evenodd" fill="url(&quot;#a&quot;)" transform="translate(425.061 2393.127)" data-name="Path 92"></path>
                      <path d="M0 151v20.843a2.98 2.98 0 0 0 2.978 2.977H30.9a2.98 2.98 0 0 0 2.978-2.977V151H0Zm11.604 14.113a.992.992 0 1 1-1.24 1.55l-4.963-3.97a.993.993 0 0 1 0-1.55l4.963-3.97a.993.993 0 0 1 1.24 1.55l-3.994 3.195 3.994 3.195Zm9.225-9.752-5.955 13.895a.992.992 0 1 1-1.825-.782l5.955-13.895a.993.993 0 0 1 1.825.782Zm7.648 7.332-4.963 3.97a.992.992 0 1 1-1.24-1.55l3.994-3.195-3.994-3.195a.992.992 0 1 1 1.24-1.55l4.963 3.97a.993.993 0 0 1 0 1.55Z" fill-rule="evenodd" fill="url(&quot;#b&quot;)" transform="translate(425.061 2253.052)" data-name="Path 93"></path>
                    </g>
                    <defs>
                      <linearGradient x1=".5" y1="0" x2=".5" y2="1" id="a5">
                        <stop stop-color="#f50366" offset="0"></stop>
                        <stop stop-color="#fc5904" offset="1"></stop>
                      </linearGradient>
                      <linearGradient x1=".5" y1="0" x2=".5" y2="1" id="b5">
                        <stop stop-color="#f50366" offset="0"></stop>
                        <stop stop-color="#fc5904" offset="1"></stop>
                      </linearGradient>
                    <linearGradient x1=".5" y1="0" x2=".5" y2="1" id="a">
                        <stop stop-color="#f50366" offset="0"></stop>
                        <stop stop-color="#fc5904" offset="1"></stop>
                      </linearGradient><linearGradient x1=".5" y1="0" x2=".5" y2="1" id="b">
                        <stop stop-color="#f50366" offset="0"></stop>
                        <stop stop-color="#fc5904" offset="1"></stop>
                      </linearGradient></defs>
                  </svg>