<svg xmlns="http://www.w3.org/2000/svg" width="33.871" height="33.878" viewBox="1228.9 2394.54 33.871 33.878">
                    <g data-name="003-copywriting">
                      <path d="M16.214 399.359V392H8.789l7.425 7.359Z" fill-rule="evenodd" fill="url(&quot;#a&quot;)" transform="translate(1220.693 2028.478)" data-name="Path 95"></path>
                      <path d="m221.609 221.609 1.403 4.211.703.703 2.806-2.808-.702-.702-4.21-1.404Z" fill-rule="evenodd" fill="url(&quot;#b&quot;)" transform="translate(1021.955 2187.595)" data-name="Path 96"></path>
                      <path d="M0 0h3.97v13.278H0V0Z" fill-rule="evenodd" fill="url(&quot;#c&quot;)" transform="rotate(-45 3539.33 -297.58) scale(.99985)" data-name="Path 97"></path>
                      <path d="M0 0h3.97v2.978H0V0Z" fill-rule="evenodd" fill="url(&quot;#d&quot;)" transform="rotate(-45 3557.75 -305.21) scale(.99985)" data-name="Path 98"></path>
                      <path d="M25.872 20.258V0H0v23.953h9.991v9.925h15.88v-2.392l-11.54-11.539-2.806-8.423 8.421 2.809 5.926 5.925ZM8.006 3.044h13.896v1.985H8.006V3.044Zm-3.97 0h1.985v1.985H4.036V3.044Zm0 5.955V7.014h17.866v1.985H4.036Z" fill-rule="evenodd" fill="url(&quot;#e&quot;)" transform="translate(1228.9 2394.54)" data-name="Path 99"></path>
                    </g>
                    <defs>
                      <linearGradient x1=".5" y1="0" x2=".5" y2="1" id="a">
                        <stop stop-color="#f50366" offset="0"></stop>
                        <stop stop-color="#fc5904" offset="1"></stop>
                      </linearGradient>
                      <linearGradient x1=".5" y1="0" x2=".5" y2="1" id="b">
                        <stop stop-color="#f50366" offset="0"></stop>
                        <stop stop-color="#fc5904" offset="1"></stop>
                      </linearGradient>
                      <linearGradient x1=".5" y1="0" x2=".5" y2="1" id="c">
                        <stop stop-color="#f50366" offset="0"></stop>
                        <stop stop-color="#fc5904" offset="1"></stop>
                      </linearGradient>
                      <linearGradient x1=".5" y1="0" x2=".5" y2="1" id="d">
                        <stop stop-color="#f50366" offset="0"></stop>
                        <stop stop-color="#fc5904" offset="1"></stop>
                      </linearGradient>
                      <linearGradient x1=".5" y1="0" x2=".5" y2="1" id="e">
                        <stop stop-color="#f50366" offset="0"></stop>
                        <stop stop-color="#fc5904" offset="1"></stop>
                      </linearGradient>
                    <linearGradient x1=".5" y1="0" x2=".5" y2="1" id="a">
                        <stop stop-color="#f50366" offset="0"></stop>
                        <stop stop-color="#fc5904" offset="1"></stop>
                      </linearGradient><linearGradient x1=".5" y1="0" x2=".5" y2="1" id="b">
                        <stop stop-color="#f50366" offset="0"></stop>
                        <stop stop-color="#fc5904" offset="1"></stop>
                      </linearGradient><linearGradient x1=".5" y1="0" x2=".5" y2="1" id="c">
                        <stop stop-color="#f50366" offset="0"></stop>
                        <stop stop-color="#fc5904" offset="1"></stop>
                      </linearGradient><linearGradient x1=".5" y1="0" x2=".5" y2="1" id="d">
                        <stop stop-color="#f50366" offset="0"></stop>
                        <stop stop-color="#fc5904" offset="1"></stop>
                      </linearGradient><linearGradient x1=".5" y1="0" x2=".5" y2="1" id="e">
                        <stop stop-color="#f50366" offset="0"></stop>
                        <stop stop-color="#fc5904" offset="1"></stop>
                      </linearGradient></defs>
                  </svg>